# xmcd CD database file
#
# Track frame offsets:
#	150
#	30669
#	64233
#	83701
#	107119
#	131576
#	154462
#	195840
#	230189
#	271388
#	301819
#	325194
#
# Disc length: 4757 seconds
#
# Revision: 0
# Processed by: cddbd v1.5.2PL0 Copyright (c) Steve Scherf et al.
# Submitted via: CDex 1.51
#
DISCID=a112930c
DTITLE=Horace Silver - Quicksilver CD 2
DYEAR=1900
DGENRE=Jazz
TTITLE0=Doodlin'
TTITLE1=Creepin' In
TTITLE2=The Preacher
TTITLE3=To Whom It May Concern
TTITLE4=Wonder Why
TTITLE5=Moonray
TTITLE6=Hear Me Talkin' To Ya
TTITLE7=Lady Bird
TTITLE8=Like Someone In Love
TTITLE9=The End Of A Love Affair
TTITLE10=For Heaven's Sake
TTITLE11=Senor Blues
EXTD=
EXTT0=
EXTT1=
EXTT2=
EXTT3=
EXTT4=
EXTT5=
EXTT6=
EXTT7=
EXTT8=
EXTT9=
EXTT10=
EXTT11=
PLAYORDER=
